<?xml version="1.0" encoding="UTF-8" standalone="no"?>
<!DOCTYPE svg PUBLIC "-//W3C//DTD SVG 1.1//EN" "http://www.w3.org/Graphics/SVG/1.1/DTD/svg11.dtd"
[
<!ATTLIST g
  xmlns:vectornator CDATA #FIXED "http://vectornator.io"
  vectornator:layerName CDATA #IMPLIED >
<!ATTLIST g
  xmlns:vectornator CDATA #FIXED "http://vectornator.io"
  vectornator:mask CDATA #IMPLIED >
<!ATTLIST text
  xmlns:vectornator CDATA #FIXED "http://vectornator.io"
  vectornator:width CDATA #IMPLIED >

<!ATTLIST path
  xmlns:vectornator CDATA #FIXED "http://vectornator.io"
  vectornator:blendMode CDATA #IMPLIED >
<!ATTLIST path
  xmlns:vectornator CDATA #FIXED "http://vectornator.io"
  vectornator:shadowColor CDATA #IMPLIED >
<!ATTLIST path
  xmlns:vectornator CDATA #FIXED "http://vectornator.io"
  vectornator:shadowOpacity CDATA #IMPLIED >
<!ATTLIST path
  xmlns:vectornator CDATA #FIXED "http://vectornator.io"
  vectornator:shadowRadius CDATA #IMPLIED >
<!ATTLIST path
  xmlns:vectornator CDATA #FIXED "http://vectornator.io"
  vectornator:shadowOffset CDATA #IMPLIED >
<!ATTLIST path
  xmlns:vectornator CDATA #FIXED "http://vectornator.io"
  vectornator:shadowAngle CDATA #IMPLIED >

<!ATTLIST image
  xmlns:vectornator CDATA #FIXED "http://vectornator.io"
  vectornator:blendMode CDATA #IMPLIED >
<!ATTLIST image
  xmlns:vectornator CDATA #FIXED "http://vectornator.io"
  vectornator:shadowColor CDATA #IMPLIED >
<!ATTLIST image
  xmlns:vectornator CDATA #FIXED "http://vectornator.io"
  vectornator:shadowOpacity CDATA #IMPLIED >
<!ATTLIST image
  xmlns:vectornator CDATA #FIXED "http://vectornator.io"
  vectornator:shadowRadius CDATA #IMPLIED >
<!ATTLIST image
  xmlns:vectornator CDATA #FIXED "http://vectornator.io"
  vectornator:shadowOffset CDATA #IMPLIED >
<!ATTLIST image
  xmlns:vectornator CDATA #FIXED "http://vectornator.io"
  vectornator:shadowAngle CDATA #IMPLIED >

<!ATTLIST g
  xmlns:vectornator CDATA #FIXED "http://vectornator.io"
  vectornator:blendMode CDATA #IMPLIED >
<!ATTLIST g
  xmlns:vectornator CDATA #FIXED "http://vectornator.io"
  vectornator:shadowColor CDATA #IMPLIED >
<!ATTLIST g
  xmlns:vectornator CDATA #FIXED "http://vectornator.io"
  vectornator:shadowOpacity CDATA #IMPLIED >
<!ATTLIST g
  xmlns:vectornator CDATA #FIXED "http://vectornator.io"
  vectornator:shadowRadius CDATA #IMPLIED >
<!ATTLIST g
  xmlns:vectornator CDATA #FIXED "http://vectornator.io"
  vectornator:shadowOffset CDATA #IMPLIED >
<!ATTLIST g
  xmlns:vectornator CDATA #FIXED "http://vectornator.io"
  vectornator:shadowAngle CDATA #IMPLIED >

<!ENTITY % SVG.filter.extra.content  "| feDropShadow" >
<!ELEMENT feDropShadow EMPTY>
<!ATTLIST feDropShadow
  xmlns:svg CDATA #FIXED "http://www.w3.org/Graphics/SVG/1.1/DTD/svg11.dtd"
  dx CDATA #IMPLIED>
<!ATTLIST feDropShadow
  xmlns:svg CDATA #FIXED "http://www.w3.org/Graphics/SVG/1.1/DTD/svg11.dtd"
  dy CDATA #IMPLIED>
<!ATTLIST feDropShadow
  xmlns:svg CDATA #FIXED "http://www.w3.org/Graphics/SVG/1.1/DTD/svg11.dtd"
  stdDeviation CDATA #IMPLIED>
<!ATTLIST feDropShadow
  xmlns:svg CDATA #FIXED "http://www.w3.org/Graphics/SVG/1.1/DTD/svg11.dtd"
  flood-opacity CDATA #IMPLIED>
<!ATTLIST feDropShadow
  xmlns:svg CDATA #FIXED "http://www.w3.org/Graphics/SVG/1.1/DTD/svg11.dtd"
  in CDATA #IMPLIED>
<!ATTLIST feDropShadow
  xmlns:svg CDATA #FIXED "http://www.w3.org/Graphics/SVG/1.1/DTD/svg11.dtd"
  result CDATA #IMPLIED>
<!ATTLIST feDropShadow
  xmlns:svg CDATA #FIXED "http://www.w3.org/Graphics/SVG/1.1/DTD/svg11.dtd"
  flood-color CDATA #IMPLIED>
]
>
<!-- Created with Vectornator (http://vectornator.io/) -->
<svg height="100%" stroke-miterlimit="10" style="fill-rule:nonzero;clip-rule:evenodd;stroke-linecap:round;stroke-linejoin:round;" version="1.1" viewBox="0 0 800 600" width="100%" xml:space="preserve" xmlns="http://www.w3.org/2000/svg" xmlns:vectornator="http://vectornator.io" xmlns:xlink="http://www.w3.org/1999/xlink">
<defs>
<clipPath id="TextBounds">
<rect height="41.25" width="81.5526" x="482.573" y="438.961"/>
</clipPath>
</defs>
<clipPath id="ArtboardFrame">
<rect height="600" width="800" x="0" y="0"/>
</clipPath>
<g clip-path="url(#ArtboardFrame)" id="XMLID_2188_" vectornator:layerName="XMLID_2188_">
<path d="M50.3 513.7L759.5 513.7" fill="none" fill-rule="evenodd" opacity="1" stroke="#5d5c74" stroke-linecap="butt" stroke-linejoin="miter" stroke-width="4"/>
<path d="M392 406.9C392 352 451.2 307.4 524.2 307.4C597.2 307.4 656.4 351.9 656.4 406.9" fill="#344258" fill-rule="evenodd" opacity="1" stroke="#5d5c74" stroke-linecap="butt" stroke-linejoin="miter" stroke-width="4"/>
<path d="M670.219 376.668L670.219 533.268C670.219 541.368 663.619 547.968 655.519 547.968L390.119 547.968C382.019 547.968 375.419 541.368 375.419 533.268L375.419 438.891L375.419 376.467C375.419 368.367 382.019 361.767 390.119 361.767L655.519 361.767C663.619 361.967 670.219 368.568 670.219 376.668" fill="#e4e6e9" fill-rule="evenodd" opacity="1" stroke="none"/>
<path d="M655.061 551.166L389.661 551.166C379.761 551.166 371.861 543.166 371.861 533.366L371.828 474.058C371.828 472.89 372.381 473.376 373.242 473.802C373.634 473.996 374.119 473.824 374.616 473.832C375.167 473.84 375.762 473.929 376.316 473.697C377.172 473.338 377.861 473.055 377.861 473.966L377.861 533.366C377.861 539.766 383.061 545.166 389.461 545.166L655.061 545.166C661.461 545.166 666.661 539.966 666.661 533.366L666.661 376.566C666.661 370.166 661.461 364.766 655.061 364.766L389.661 364.766C383.261 364.766 378.061 369.966 378.061 376.566L377.865 473.959C377.865 475.659 376.612 475.466 374.912 475.466C374.022 475.466 374.313 474.951 373.842 475.107C373.695 475.156 373.414 475.143 373.108 475.073C372.519 474.939 371.836 474.592 371.836 474.058L371.861 376.566C371.861 366.666 379.861 358.766 389.661 358.766L655.061 358.766C664.961 358.766 672.861 366.766 672.861 376.566L672.861 533.166C672.861 543.066 664.961 551.166 655.061 551.166" fill="#5d5c74" fill-rule="evenodd" opacity="1" stroke="none"/>
<path d="M225 530.6L268 530.6L268 466.5L225 466.5L225 530.6Z" fill="#dfe1e2" fill-rule="evenodd" opacity="1" stroke="none"/>
<path d="M228.1 527.5L265 527.5L265 469.6L228.1 469.6L228.1 527.5ZM268.1 533.7L225.1 533.7C223.4 533.7 222 532.3 222 530.6L222 466.5C222 464.8 223.4 463.4 225.1 463.4L268.1 463.4C269.8 463.4 271.2 464.8 271.2 466.5L271.2 530.6C271 532.3 269.8 533.7 268.1 533.7Z" fill="#5d5c74" fill-rule="evenodd" opacity="1" stroke="none"/>
<path d="M268.1 522.1C266.4 522.1 265 520.7 265 519C265 517.3 266.4 515.9 268.1 515.9C277.6 515.9 285.4 508.1 285.4 498.6C285.4 489.1 277.6 481.3 268.1 481.3C266.4 481.3 265 479.9 265 478.2C265 476.5 266.4 475.1 268.1 475.1C281.1 475.1 291.5 485.7 291.5 498.7C291.5 511.6 280.9 522.1 268.1 522.1M246.6 458.5C246.1 458.5 245.6 458.3 245.2 457.8C244.7 457.1 239.7 450.2 240.7 445.5C241.2 443.4 242.4 441.9 243.8 440.3C245.4 438.4 246.9 436.7 247.1 433.7C247.3 432.7 248.1 432 249.2 432C250.2 432.2 250.9 433 250.9 434.1C250.6 438.3 248.5 440.7 246.7 442.8C245.7 444 244.6 445.2 244.4 446.4C243.9 448.8 246.8 453.7 248.2 455.6C248.9 456.5 248.7 457.5 247.9 458.2C247.3 458.4 247 458.5 246.6 458.5M236 457.2C235.8 457.2 235.7 457.2 235.5 457C235.2 456.7 231.7 454.4 231.3 452C231.1 451 231.5 449.9 232 449.1C232.5 447.9 232.9 446.8 232.5 445.5C232.3 445 232.7 444.5 233.2 444.5C233.7 444.3 234.2 444.7 234.2 445.2C234.7 447.3 234 448.7 233.7 449.9C233.4 450.6 233.2 451.3 233.2 452C233.4 453 235.3 454.8 236.5 455.8C236.8 456.1 237 456.7 236.7 457C236.6 457 236.4 457.2 236 457.2M257.2 457.5C256.9 457.5 256.5 457.3 256.3 456.8C256.1 456.3 254.7 452.3 256 450.2C256.5 449.3 257.4 448.6 258.3 448.1C259.3 447.4 260.2 446.9 260.9 445.5C261.1 445 261.6 444.8 262.1 445.2C262.4 445.4 262.8 445.9 262.6 446.4C261.7 448.3 260.3 449.2 259.3 449.9C258.6 450.4 257.9 450.8 257.7 451.3C257.2 452.3 257.7 454.8 258.2 456.3C258.4 456.8 258.2 457.3 257.7 457.5L257.2 457.5" fill="#5d5c74" fill-rule="evenodd" opacity="1" stroke="none"/>
<path d="M229.1 268.6L189.606 308.62L179 318.8C179 318.8 167.4 308.1 165.7 298.9C165.7 298.9 157.4 277.7 176.3 261C176.3 261 176.405 260.876 176.615 260.659C176.667 260.605 176.725 260.545 176.79 260.48C179.153 258.114 190.108 248.681 210.4 253.6C210.4 253.6 223 257.8 229.1 268.6Z" fill="#cdcfd2" fill-rule="evenodd" opacity="1" stroke="none"/>
<path d="M109.9 233.2C110 232.7 110.4 232.4 110.8 232.2C111.2 232 111.7 232 112.2 232.2L172.1 258.5C172.3 258.6 172.5 258.7 172.7 258.9C188.2 244.7 212.3 245 227.3 260C229.6 262.3 231.6 264.9 233.2 267.6L233.2 267.6C233.9 268.4 233.9 269.6 233.1 270.3L228.586 274.818C228.586 274.818 223.092 274.549 223.008 274.68C222.924 274.811 229 268.7 229 268.7C227.7 266.7 226.1 264.7 224.4 262.9C220.171 258.671 215.125 255.738 209.76 254.101C197.617 250.396 183.84 253.329 174.2 262.9C172.007 265.093 170.161 267.511 168.665 270.082C163.541 278.884 162.504 289.481 165.6 299L165.6 299C165.8 299.7 165.7 300.4 165.1 300.9C164.3 301.7 163.1 301.7 162.3 300.9C162.2 300.8 162.109 300.504 162.009 300.404C162.009 300.404 161.792 300.027 161.792 299.927L161.9 300.3C161.9 300.2 161.8 300.1 161.8 300C157.6 286.9 160.4 272.1 170.1 261.4L112.5 236.1L89.0475 310.449L86.734 307.466L109.9 233.2Z" fill="#5d5c74" fill-rule="evenodd" opacity="1" stroke="none"/>
<path d="M112.8 532.3C112.3 532.3 111.8 532.1 111.5 531.7L72.1 483.3L76.5 483.3L113.6 528.9L177.8 528.9C178.7 528.9 179.5 529.7 179.5 530.6L179.5 539.6C179.5 540.5 178.7 541.3 177.8 541.3L40.3 542.7L40.3 542.7C39.4 542.7 38.6 541.9 38.6 541C38.6 540.1 39.3 539.3 40.3 539.3L176.1 537.9L176.1 532.3C176.1 532.3 112.8 532.3 112.8 532.3Z" fill="#5d5c74" fill-rule="evenodd" opacity="1" stroke="none"/>
<path d="M181.8 321.6C181 322.4 179.7 322.4 179 321.6C178.2 320.8 178.2 319.5 179 318.8L189.3 308.5L189.714 313.681L181.8 321.6Z" fill="#5d5c74" fill-rule="evenodd" opacity="1" stroke="none"/>
<path d="M220.4 308.9C213 316.3 201.3 316.6 193.4 310L221.4 282C228.1 289.8 227.8 301.5 220.4 308.9Z" fill="#edeeef" fill-rule="evenodd" opacity="1" stroke="none"/>
<path d="M228.9 274.5L223.2 274.5L188.974 308.822L189.2 314.2L190.5 312.9C199.9 321.1 214.2 320.8 223.1 311.8C232 302.9 232.4 288.6 224.2 279.2L228.9 274.5ZM221.5 282C228.1 289.8 227.8 301.6 220.4 309C213 316.4 201.3 316.7 193.4 310.1L221.5 282Z" fill="#5d5c74" fill-rule="evenodd" opacity="1" stroke="none"/>
<path d="M50.2 473.7C39 473.7 30 464.6 30 453.5C30 442.3 39.1 433.3 50.2 433.3C61.4 433.3 70.4 442.4 70.4 453.5C70.4 464.7 61.3 473.7 50.2 473.7Z" fill="#e4e6e9" fill-rule="evenodd" opacity="1" stroke="none"/>
<path d="M72.2 483.3L76.6 483.3L66.4 470.7C71 466.4 73.9 460.3 73.9 453.5C73.9 443.4 67.5 434.8 58.6 431.4L60.7696 421.177L57.8 422.5L55.3 430.4C53.7 430 51.9 429.8 50.2 429.8C37.2 429.8 26.6 440.4 26.6 453.4C26.6 466.4 37.2 477 50.2 477C55.2 477 59.9 475.4 63.7 472.7L72.2 483.3ZM50.2 473.7C39 473.7 30 464.6 30 453.5C30 442.3 39.1 433.3 50.2 433.3C61.4 433.3 70.4 442.4 70.4 453.5C70.4 464.7 61.3 473.7 50.2 473.7Z" fill="#5d5c74" fill-rule="evenodd" opacity="1" stroke="none"/>
<path d="M40.3 532.3L176.1 532.3L176.1 532.3L176.1 539.3L176.1 539.3L40.3 539.3L40.3 539.3L40.3 532.3L40.3 532.3Z" fill="#cdcfd2" fill-rule="evenodd" opacity="1" stroke="none"/>
<path d="M56.4 432.3L88.2 307.8" fill="none" fill-rule="evenodd" opacity="1" stroke="#5d5c74" stroke-linecap="butt" stroke-linejoin="miter" stroke-width="3"/>
<path d="M927.6 36C926.4 37 924.8 37.7 923.1 37.7C919.3 37.7 916.2 34.6 916.2 30.8C916.2 27 919.3 23.9 923.1 23.9C926.9 23.9 930 27 930 30.8C930 32 929.7 33.1 929.2 34" fill="none" fill-rule="evenodd" opacity="1" stroke="#4fc1eb" stroke-linecap="butt" stroke-linejoin="miter" stroke-width="3"/>
<path d="M723.9-25.7C721.1-23.3 717.4-21.8 713.4-21.8C704.5-21.8 697.3-29 697.3-37.9C697.3-46.8 704.5-54 713.4-54C722.3-54 729.5-46.8 729.5-37.9C729.5-35.2 728.8-32.6 727.6-30.3" fill="none" fill-rule="evenodd" opacity="1" stroke="#4fc1eb" stroke-linecap="butt" stroke-linejoin="miter" stroke-width="3"/>
<path d="M422.9-49.9C422-49.1 420.7-48.6 419.4-48.6C416.4-48.6 414-51 414-54C414-57 416.4-59.4 419.4-59.4C422.4-59.4 424.8-57 424.8-54C424.8-53.1 424.6-52.2 424.2-51.5" fill="none" fill-rule="evenodd" opacity="1" stroke="#f39200" stroke-linecap="butt" stroke-linejoin="miter" stroke-width="3"/>
<path d="M893.7 176.5C892.8 177.3 891.5 177.8 890.2 177.8C887.2 177.8 884.8 175.4 884.8 172.4C884.8 169.4 887.2 167 890.2 167C893.2 167 895.6 169.4 895.6 172.4C895.6 173.3 895.4 174.2 895 174.9" fill="none" fill-rule="evenodd" opacity="1" stroke="#f39200" stroke-linecap="butt" stroke-linejoin="miter" stroke-width="3"/>
<path d="M178.812 285.698C178.464 286.229 178.13 286.767 177.813 287.312" fill="#5d5c74" fill-rule="evenodd" opacity="1" stroke="none"/>
<path d="M169.353 264.063C169.453 264.258 169.063 262.748 169.258 262.943C160.491 273.229 161.966 299.627 162.011 300.39C162.011 300.401 162.012 300.407 162.012 300.407C162.012 300.407 164.915 309.016 169.532 313.642C171.768 315.883 176.493 320.627 179.088 322.179L179.088 322.179C179.863 322.86 180.998 322.853 181.639 322.065L185.487 317.468L185.547 312.353L180.017 318.057C178.091 316.795 176.158 315.238 174.41 313.583C170.299 309.464 167.392 304.536 165.702 299.288C162.57 289.564 163.616 278.742 168.924 269.922C170.1 267.969 171.485 266.113 173.08 264.39C174.668 262.687 175.475 261.403 177.305 260.122" fill="#5d5c74" fill-rule="evenodd" opacity="1" stroke="none"/>
<path d="M177.89 274.255C192.865 280.83 181.248 275.73 181.248 275.73" fill="#5d5c74" fill-rule="evenodd" opacity="1" stroke="none"/>
<path d="M169.051 270.722L177.89 274.255" fill="#5d5c74" fill-rule="evenodd" opacity="1" stroke="none"/>
<path d="M152.793 263.466L169.051 270.722" fill="#5d5c74" fill-rule="evenodd" opacity="1" stroke="none"/>
<g fill="#344258" opacity="1" stroke="none">
<path clip-path="url(#TextBounds)" d="M484.552 460.805L504.53 452.978L504.53 456.054L488.192 462.223L504.53 468.41L504.53 471.486L484.552 463.642L484.552 460.805Z" fill-rule="evenodd"/>
<path clip-path="url(#TextBounds)" d="M507.948 446.056L511.383 446.056L511.383 471.161L507.948 471.161L507.948 446.056Z" fill-rule="evenodd"/>
<path clip-path="url(#TextBounds)" d="M529.789 460.873L525.978 449.782L521.927 460.873L529.789 460.873ZM524.2 446.056L528.045 446.056L537.154 471.161L533.429 471.161L530.882 463.642L520.953 463.642L518.236 471.161L514.749 471.161L524.2 446.056Z" fill-rule="evenodd"/>
<path clip-path="url(#TextBounds)" d="M558.038 463.676L538.06 471.486L538.06 468.41L554.381 462.223L538.06 456.054L538.06 452.978L558.038 460.805L558.038 463.676Z" fill-rule="evenodd"/>
</g>
<path d="M524.469 153.256L524.469 153.256C556.453 153.256 582.381 180.223 582.381 213.49L582.381 234.34C582.381 267.606 556.453 294.574 524.469 294.574L524.469 294.574C492.486 294.574 466.558 267.606 466.558 234.34L466.558 213.49C466.558 180.223 492.486 153.256 524.469 153.256Z" fill="none" fill-rule="evenodd" opacity="1" stroke="#5d5c74" stroke-linecap="round" stroke-linejoin="round" stroke-width="5.28424"/>
<path d="M587.32 154.263L587.32 154.263C587.359 154.263 587.392 154.295 587.392 154.335L587.392 154.48C587.392 154.519 587.359 154.552 587.32 154.552L587.32 154.552C587.28 154.552 587.247 154.519 587.247 154.48L587.247 154.335C587.247 154.295 587.28 154.263 587.32 154.263Z" fill="none" fill-rule="evenodd" opacity="1" stroke="#5d5c74" stroke-linecap="round" stroke-linejoin="round" stroke-width="3.98653"/>
<path d="M374.984 476.664C374.617 475.878 374.72 475.013 374.954 474.207" fill="#5d5c74" fill-rule="evenodd" opacity="1" stroke="none"/>
<path d="M367.649 468.325C367.553 468.303 367.457 468.282 367.36 468.26" fill="#5d5c74" fill-rule="evenodd" opacity="1" stroke="none"/>
<g opacity="1">
<path d="M374.906 468C374.881 467.998 374.845 468.037 374.844 468.062C374.843 468.078 374.864 468.085 374.875 468.094C374.82 468.147 372.754 470.16 372.75 472.156C372.748 472.905 372.653 473.663 372.75 474.406C372.862 475.271 373.55 475.793 374.344 476.031C372.793 475.027 374.873 468.234 374.906 468.125C374.898 468.109 374.914 468.109 374.906 468.094C374.906 468.094 374.906 468.062 374.906 468.062C374.905 468.036 374.907 468.027 374.906 468ZM374.906 468.125C375.13 473.88 376.2 475.377 376.062 475.875C376.48 475.6 376.799 475.164 376.938 474.656C376.991 474.461 376.999 474.296 377 474.094C377.004 473.443 377.001 472.807 377 472.156C376.995 470.171 376.992 472.116 374.906 468.125ZM376.062 475.875C375.718 476.102 375.3 476.156 374.875 476.156C374.988 476.16 375.072 476.265 375.188 476.25C375.809 476.169 376.007 476.077 376.062 475.875ZM374.875 476.156C374.686 476.15 374.522 476.085 374.344 476.031C374.435 476.091 374.507 476.203 374.625 476.219C374.716 476.231 374.785 476.156 374.875 476.156Z" fill="#5d5c74" stroke="none"/>
</g>
<path d="M374.866 471.42L374.866 471.42C376.53 471.42 377.879 472.321 377.879 473.433L377.879 477.022C377.879 478.134 376.53 479.035 374.866 479.035L374.866 479.035C373.202 479.035 371.852 478.134 371.852 477.022L371.852 473.433C371.852 472.321 373.202 471.42 374.866 471.42Z" fill="#5d5c74" fill-rule="evenodd" opacity="1" stroke="none"/>
</g>
</svg>
